<?xml version="1.0" encoding="UTF-8"?>
<svg width="28px" height="28px" fill="currentColor" viewBox="0 0 28 28" version="1.1" xmlns="http://www.w3.org/2000/svg" xmlns:xlink="http://www.w3.org/1999/xlink">
    <!-- Generator: Sketch 63 (92445) - https://sketch.com -->
    <desc>Created with Sketch.</desc>
    <g id="✅-首页设计稿" stroke="none" stroke-width="1" fill-rule="evenodd" >
        <g id="首屏" transform="translate(-1660.000000, -785.000000)" fill-rule="nonzero">
            <g id="编组-21备份-3" transform="translate(1640.000000, 707.000000)">
                <g id="02-服务-icons/在线客服-+-02-服务-icons/在线客服备份-+-矩形-+-在线客服-+-路径-2-+-路径-2备份-+-路径-2备份-2-蒙版">
                    <g id="编组-29" transform="translate(20.000000, 78.000000)">
                        <g id="02-服务-icons/客服热线">
                            <path d="M8.47633617,6.77901045 L8.51868769,6.83722602 L9.63444553,8.46778675 C10.2120865,9.31194722 10.1227466,10.4403606 9.4300566,11.182719 L9.37093716,11.2436742 L7.0308,13.5647556 L7.11569927,13.6990983 C7.99321638,15.072333 8.9831928,16.3147178 10.1281685,17.4807984 L10.2927954,17.6468682 C11.7126901,19.0656651 13.1208591,20.1964327 14.7446031,21.214727 L14.8720444,21.2936889 L17.1392545,18.9961 C17.8039121,18.3223863 18.8245994,18.1571757 19.6648704,18.5783763 L19.7407467,18.6182849 L21.6292298,19.6591105 C22.0575802,19.8951931 22.3060969,20.3589231 22.2694808,20.8425968 L22.2627104,20.9086564 L21.9832692,23.0685698 C21.9597062,23.2506981 21.9132005,23.4291146 21.8448594,23.5995712 C21.3972747,24.7159391 20.1294409,25.2580958 19.0130691,24.810514 L18.7954825,24.7219981 C18.6853676,24.676422 18.5930891,24.6367905 18.5181094,24.6028324 C14.6638052,22.8572321 12.0535348,21.1654763 9.41318068,18.5271635 C6.7999508,15.9159541 4.94542691,12.9498029 3.42398282,9.10209693 C3.34555071,8.90374348 3.29991399,8.69395018 3.28886133,8.48093955 C3.23383839,7.42051886 4.0295388,6.51280196 5.07874767,6.42037316 L5.15067046,6.41534234 L7.42718646,6.29721883 C7.83619732,6.27599614 8.22778537,6.45730876 8.47633617,6.77901045 Z M18.0703497,19.8271979 L18.0251436,19.8700809 L15.9786667,21.9442222 L16.0549459,21.987113 C16.8979245,22.4550046 17.80454,22.9073734 18.8001635,23.3638149 L19.0315144,23.4692288 C19.1319487,23.5147151 19.2809014,23.5771582 19.4761675,23.6554461 C19.9546126,23.8472669 20.4979704,23.6149138 20.6897923,23.1364708 C20.7117591,23.0816813 20.7284619,23.0249728 20.7397007,22.9671136 L20.7491107,22.9088992 L21.0285519,20.7489857 L19.1400688,19.7081601 C18.7923849,19.5165363 18.3639508,19.5666519 18.0703497,19.8271979 Z M14.056,8.08888889 C17.4566422,8.08888889 20.2201145,10.8169378 20.2773178,14.2039366 L20.2782222,14.3111111 L19.0337778,14.3111111 C19.0337778,11.5946883 16.8578975,9.38646965 14.1539598,9.334278 L14.056,9.33333333 L14.056,8.08888889 Z M14.056,4.97777778 C19.1591111,4.97777778 23.3056622,9.0732978 23.3880829,14.1567674 L23.3893333,14.3111111 L22.1448889,14.3111111 C22.1448889,9.88841483 18.5954382,6.29473719 14.1897646,6.2233059 L14.056,6.22222222 L14.056,4.97777778 Z M7.49167125,7.53999141 L5.21515813,7.65811477 C4.8169981,7.67877628 4.51097434,8.01829649 4.53163391,8.41645476 C4.53569165,8.49465683 4.55244615,8.57167774 4.58124073,8.64449876 C5.10101698,9.95900395 5.65902949,11.1628717 6.27409304,12.2802268 L6.37528889,12.4621778 L8.49449693,10.3602182 C8.80044647,10.0566983 8.85721979,9.58556164 8.63890658,9.21975619 L8.60742909,9.17055214 L7.49167125,7.53999141 Z" id="形状结合"></path>
                        </g>
                    </g>
                </g>
            </g>
        </g>
    </g>
</svg>